<svg width="256" height="256" viewBox="0 0 256 256" xmlns="http://www.w3.org/2000/svg">
  <defs>
    <linearGradient id="bg" x1="0%" y1="0%" x2="100%" y2="100%">
      <stop offset="0%" style="stop-color:#0c1f16"/>
      <stop offset="60%" style="stop-color:#0a1628"/>
      <stop offset="100%" style="stop-color:#080e1c"/>
    </linearGradient>
    <radialGradient id="glow" cx="50%" cy="42%" r="45%">
      <stop offset="0%" style="stop-color:#00e5a0;stop-opacity:0.12"/>
      <stop offset="100%" style="stop-color:#00e5a0;stop-opacity:0"/>
    </radialGradient>
    <linearGradient id="linegrad" x1="0%" y1="0%" x2="100%" y2="0%">
      <stop offset="0%" style="stop-color:#00e5a0;stop-opacity:0"/>
      <stop offset="50%" style="stop-color:#00e5a0;stop-opacity:1"/>
      <stop offset="100%" style="stop-color:#00e5a0;stop-opacity:0"/>
    </linearGradient>
    <clipPath id="iconclip">
      <rect width="256" height="256" rx="56" ry="56"/>
    </clipPath>
  </defs>
  <rect width="256" height="256" rx="56" ry="56" fill="url(#bg)"/>
  <rect width="256" height="256" rx="56" ry="56" fill="url(#glow)"/>
  <g clip-path="url(#iconclip)" opacity="1">
    <ellipse cx="128" cy="108" rx="95" ry="70" fill="none" stroke="#00e5a0" stroke-width="0.6" opacity="0.08"/>
    <ellipse cx="128" cy="108" rx="78" ry="56" fill="none" stroke="#00e5a0" stroke-width="0.6" opacity="0.10"/>
    <ellipse cx="128" cy="108" rx="61" ry="43" fill="none" stroke="#00e5a0" stroke-width="0.6" opacity="0.13"/>
    <ellipse cx="128" cy="108" rx="44" ry="31" fill="none" stroke="#00e5a0" stroke-width="0.8" opacity="0.16"/>
    <ellipse cx="128" cy="108" rx="28" ry="20" fill="none" stroke="#00e5a0" stroke-width="0.8" opacity="0.20"/>
    <g stroke="#00e5a0" stroke-width="0.4" opacity="0.04">
      <line x1="0" y1="64" x2="256" y2="64"/>
      <line x1="0" y1="128" x2="256" y2="128"/>
      <line x1="0" y1="192" x2="256" y2="192"/>
      <line x1="64" y1="0" x2="64" y2="256"/>
      <line x1="128" y1="0" x2="128" y2="256"/>
      <line x1="192" y1="0" x2="192" y2="256"/>
    </g>
  </g>
  <circle cx="128" cy="104" r="44" fill="none" stroke="#00e5a0" stroke-width="1" opacity="0.25"/>
  <circle cx="128" cy="104" r="28" fill="none" stroke="#00e5a0" stroke-width="1" opacity="0.4"/>
  <line x1="128" y1="56" x2="128" y2="64" stroke="#00e5a0" stroke-width="1.5" stroke-linecap="round"/>
  <line x1="128" y1="144" x2="128" y2="152" stroke="#00e5a0" stroke-width="1.5" stroke-linecap="round"/>
  <line x1="80" y1="104" x2="88" y2="104" stroke="#00e5a0" stroke-width="1.5" stroke-linecap="round"/>
  <line x1="168" y1="104" x2="176" y2="104" stroke="#00e5a0" stroke-width="1.5" stroke-linecap="round"/>
  <line x1="97" y1="73" x2="101" y2="77" stroke="#00e5a0" stroke-width="1" stroke-linecap="round" opacity="0.5"/>
  <line x1="159" y1="73" x2="155" y2="77" stroke="#00e5a0" stroke-width="1" stroke-linecap="round" opacity="0.5"/>
  <line x1="97" y1="135" x2="101" y2="131" stroke="#00e5a0" stroke-width="1" stroke-linecap="round" opacity="0.5"/>
  <line x1="159" y1="135" x2="155" y2="131" stroke="#00e5a0" stroke-width="1" stroke-linecap="round" opacity="0.5"/>
  <line x1="128" y1="68" x2="128" y2="92" stroke="#00e5a0" stroke-width="1" opacity="0.6" stroke-linecap="round"/>
  <line x1="128" y1="116" x2="128" y2="140" stroke="#00e5a0" stroke-width="1" opacity="0.6" stroke-linecap="round"/>
  <line x1="92" y1="104" x2="116" y2="104" stroke="#00e5a0" stroke-width="1" opacity="0.6" stroke-linecap="round"/>
  <line x1="140" y1="104" x2="164" y2="104" stroke="#00e5a0" stroke-width="1" opacity="0.6" stroke-linecap="round"/>
  <circle cx="128" cy="104" r="5" fill="#00e5a0" opacity="0.9"/>
  <circle cx="128" cy="104" r="2.5" fill="#0a1628"/>
  <circle cx="128" cy="104" r="1.2" fill="#00e5a0"/>
  <path d="M30 30 L30 50 M30 30 L50 30" stroke="#00e5a0" stroke-width="1.5" fill="none" opacity="0.3" stroke-linecap="round"/>
  <path d="M226 30 L226 50 M226 30 L206 30" stroke="#00e5a0" stroke-width="1.5" fill="none" opacity="0.3" stroke-linecap="round"/>
  <path d="M30 226 L30 206 M30 226 L50 226" stroke="#00e5a0" stroke-width="1.5" fill="none" opacity="0.3" stroke-linecap="round"/>
  <path d="M226 226 L226 206 M226 226 L206 226" stroke="#00e5a0" stroke-width="1.5" fill="none" opacity="0.3" stroke-linecap="round"/>
  <line x1="30" y1="160" x2="226" y2="160" stroke="url(#linegrad)" stroke-width="0.8" opacity="0.5"/>
  <rect x="30" y="172" width="50" height="2.5" rx="1.25" fill="#00e5a0" opacity="0.35"/>
  <rect x="30" y="180" width="36" height="2.5" rx="1.25" fill="#00e5a0" opacity="0.2"/>
  <rect x="30" y="188" width="58" height="2.5" rx="1.25" fill="#00e5a0" opacity="0.28"/>
  <rect x="30" y="196" width="28" height="2.5" rx="1.25" fill="#00e5a0" opacity="0.15"/>
  <rect x="176" y="172" width="50" height="2.5" rx="1.25" fill="#00e5a0" opacity="0.2"/>
  <rect x="190" y="180" width="36" height="2.5" rx="1.25" fill="#00e5a0" opacity="0.28"/>
  <rect x="182" y="188" width="44" height="2.5" rx="1.25" fill="#00e5a0" opacity="0.18"/>
  <rect x="196" y="196" width="30" height="2.5" rx="1.25" fill="#00e5a0" opacity="0.12"/>
  <text x="128" y="228" text-anchor="middle" font-family="'Space Grotesk', sans-serif" font-size="22" font-weight="600" letter-spacing="-0.5" fill="#fff" opacity="0.9">all<tspan fill="#00e5a0">Farm</tspan></text>
</svg>
