<svg width="256" height="256" viewBox="0 0 256 256" xmlns="http://www.w3.org/2000/svg">
  <defs>
    <linearGradient id="mainbg" x1="0%" y1="0%" x2="100%" y2="100%">
      <stop offset="0%" style="stop-color:#2176d9"/>
      <stop offset="100%" style="stop-color:#1148a8"/>
    </linearGradient>
    <radialGradient id="highlight" cx="35%" cy="28%" r="55%">
      <stop offset="0%" style="stop-color:#ffffff;stop-opacity:0.12"/>
      <stop offset="100%" style="stop-color:#ffffff;stop-opacity:0"/>
    </radialGradient>
  </defs>
  <rect width="256" height="256" rx="54" ry="54" fill="url(#mainbg)"/>
  <rect width="256" height="256" rx="54" ry="54" fill="url(#highlight)"/>
  <g opacity="0.05" stroke="#fff" stroke-width="0.8" fill="none">
    <polygon points="128,32 160,50 160,86 128,104 96,86 96,50"/>
    <polygon points="160,50 192,68 192,104 160,122 128,104 128,68"/>
    <polygon points="96,50 128,68 128,104 96,122 64,104 64,68"/>
    <polygon points="128,104 160,122 160,158 128,176 96,158 96,122"/>
  </g>
  <circle cx="128" cy="112" r="58" fill="none" stroke="#ffffff" stroke-width="2.5" opacity="0.2"/>
  <circle cx="128" cy="112" r="38" fill="none" stroke="#ffffff" stroke-width="2" opacity="0.35"/>
  <line x1="128" y1="50" x2="128" y2="62" stroke="#fff" stroke-width="3" stroke-linecap="round" opacity="0.7"/>
  <line x1="128" y1="162" x2="128" y2="174" stroke="#fff" stroke-width="3" stroke-linecap="round" opacity="0.7"/>
  <line x1="66" y1="112" x2="78" y2="112" stroke="#fff" stroke-width="3" stroke-linecap="round" opacity="0.7"/>
  <line x1="178" y1="112" x2="190" y2="112" stroke="#fff" stroke-width="3" stroke-linecap="round" opacity="0.7"/>
  <line x1="128" y1="62" x2="128" y2="96" stroke="#fff" stroke-width="2" opacity="0.5" stroke-linecap="round"/>
  <line x1="128" y1="128" x2="128" y2="162" stroke="#fff" stroke-width="2" opacity="0.5" stroke-linecap="round"/>
  <line x1="78" y1="112" x2="112" y2="112" stroke="#fff" stroke-width="2" opacity="0.5" stroke-linecap="round"/>
  <line x1="144" y1="112" x2="178" y2="112" stroke="#fff" stroke-width="2" opacity="0.5" stroke-linecap="round"/>
  <line x1="128" y1="130" x2="128" y2="100" stroke="#ffffff" stroke-width="3.5" stroke-linecap="round"/>
  <path d="M128 118 C128 118 110 112 106 98 C116 95 128 104 128 118Z" fill="#ffffff" opacity="0.95"/>
  <path d="M128 108 C128 108 146 102 150 88 C140 85 128 94 128 108Z" fill="#ffffff" opacity="0.75"/>
  <circle cx="128" cy="97" r="5.5" fill="#ffffff"/>
  <circle cx="128" cy="130" r="4" fill="#ffffff" opacity="0.6"/>
  <text x="128" y="222" text-anchor="middle" font-family="'Space Grotesk', sans-serif" font-size="26" font-weight="700" letter-spacing="-0.5" fill="#ffffff" opacity="0.95">allFarm</text>
  <line x1="100" y1="228" x2="156" y2="228" stroke="#ffffff" stroke-width="1.5" opacity="0.25" stroke-linecap="round"/>
</svg>
